<svg width="94" height="102" viewBox="0 0 94 102" fill="none" xmlns="http://www.w3.org/2000/svg">
<path d="M63.6644 33.0584L78.5282 10.7718C81.4583 6.79734 79.383 0 75.2381 0H4.66162C0.516794 0 -1.55855 6.79734 1.37161 10.7718L28.1999 51V82.0622C28.1999 84.5704 29.0708 86.9311 30.5499 88.4372L42.2984 100.39C45.3622 103.506 49.4175 101.779 50.9964 97.6869C45.6486 90.7202 42.2999 80.9525 42.2999 70.125C42.2999 52.2371 51.4135 37.22 63.6644 33.0584ZM70.4999 38.25C57.5206 38.25 46.9999 52.52 46.9999 70.125C46.9999 87.73 57.5206 102 70.4999 102C83.4793 102 94 87.73 94 70.125C94 52.52 83.4793 38.25 70.4999 38.25ZM72.85 86.0386V89.25C72.85 90.1305 72.3241 90.8438 71.6749 90.8438H69.3249C68.6758 90.8438 68.1499 90.1305 68.1499 89.25V86.0047C66.4917 85.8892 64.879 85.1043 63.5425 83.7436C62.9697 83.1599 62.9403 81.9964 63.4587 81.3251L65.1845 79.0918C65.5914 78.5659 66.1965 78.542 66.6724 78.9464C67.2408 79.4285 67.8856 79.6875 68.5553 79.6875H72.684C73.6387 79.6875 74.4171 78.5081 74.4171 77.0598C74.4171 75.8745 73.8869 74.8305 73.129 74.5238L66.5196 71.8343C63.7892 70.7227 61.8813 67.1686 61.8813 63.1902C61.8813 58.3054 64.6793 54.3369 68.1485 54.2114V51C68.1485 50.1195 68.6743 49.4062 69.3235 49.4062H71.6735C72.3227 49.4062 72.8485 50.1195 72.8485 51V54.2453C74.5067 54.3608 76.1194 55.1438 77.456 56.5064C78.0288 57.0901 78.0582 58.2536 77.5397 58.9249L75.8139 61.1582C75.4071 61.6841 74.8019 61.708 74.326 61.3036C73.7576 60.8195 73.1129 60.5625 72.4431 60.5625H68.3144C67.3598 60.5625 66.5813 61.7419 66.5813 63.1902C66.5813 64.3755 67.1115 65.4195 67.8694 65.7262L74.4788 68.4157C77.2092 69.5273 79.1171 73.0814 79.1171 77.0598C79.1171 81.9466 76.3206 85.9131 72.85 86.0386Z" fill="#FFB900"/>
</svg>
