<svg width="94" height="102" viewBox="0 0 94 102" fill="none" xmlns="http://www.w3.org/2000/svg">
<path d="M92.7095 39.7167L88.5553 35.209C86.8345 33.3417 84.0446 33.3417 82.324 35.209L81.2854 36.336L60.514 13.797L61.5525 12.67C63.2734 10.8028 63.2734 7.77544 61.5525 5.90836L57.3984 1.40045C55.6775 -0.466818 52.8876 -0.466818 51.167 1.40045L28.3186 26.1934C26.5977 28.0606 26.5977 31.0879 28.3186 32.955L32.4727 37.4627C34.1936 39.33 36.9835 39.33 38.7041 37.4627L39.7427 36.3358L47.0126 44.2244L32.1342 60.369L31.0956 59.2421C28.8012 56.7524 25.0814 56.7524 22.7871 59.2421L1.72078 82.1016C-0.573593 84.5912 -0.573593 88.6275 1.72078 91.1172L10.0293 100.133C12.3237 102.622 16.0435 102.622 18.3379 100.133L39.4043 77.2735C41.6987 74.7839 41.6987 70.7475 39.4043 68.2579L38.3657 67.1309L53.2442 50.9863L60.5141 58.8749L59.4755 60.0019C57.7547 61.8692 57.7547 64.8965 59.4755 66.7635L63.6297 71.2713C65.3505 73.1385 68.1404 73.1385 69.8611 71.2713L92.7095 46.4783C94.4302 44.6113 94.4302 41.584 92.7095 39.7167Z" fill="#FFB900"/>
</svg>
