<svg width="94" height="102" viewBox="0 0 94 102" fill="none" xmlns="http://www.w3.org/2000/svg">
<path d="M71.6782 38.2489H49.3533V49.4061C49.3533 57.3158 44.6092 63.7511 38.7783 63.7511C32.9474 63.7511 28.2033 57.3158 28.2033 49.4061V25.1791L18.6711 32.9493C15.8364 35.2405 14.1033 39.4045 14.1033 43.8674V53.2912L2.35335 62.4959C0.106162 64.2492 -0.672274 68.1542 0.634911 71.2025L12.3849 98.8165C13.6774 101.865 16.5561 102.901 18.8033 101.148L33.9902 89.2532H54.0533C59.2379 89.2532 63.4532 83.5352 63.4532 76.5022H65.8032C68.4029 76.5022 70.5032 73.6531 70.5032 70.1266V57.3755H71.6782C73.6317 57.3755 75.2032 55.2437 75.2032 52.5939V43.0306C75.2032 40.3807 73.6317 38.2489 71.6782 38.2489ZM93.3716 30.7975L81.6217 3.18346C80.3292 0.135155 77.4504 -0.90087 75.2032 0.852403L60.0164 12.7468H45.0058C43.2433 12.7468 41.5248 13.4242 40.0267 14.6794L35.1064 18.8434C33.7258 19.9989 32.9033 22.0511 32.9033 24.2427V49.4061C32.9033 53.8092 35.5323 57.3755 38.7783 57.3755C42.0242 57.3755 44.6533 53.8092 44.6533 49.4061V31.8734H71.6782C76.2167 31.8734 79.9032 36.8742 79.9032 43.0306V48.7088L91.6532 39.5041C93.9004 37.7309 94.6641 33.8458 93.3716 30.7975V30.7975Z" fill="#FFB900"/>
</svg>
